<?xml version="1.0" encoding="UTF-8" standalone="no"?>
<!-- Created with Inkscape (http://www.inkscape.org/) -->

<svg
   version="1.1"
   id="svg256"
   width="143.381"
   height="116.67317"
   viewBox="0 0 143.381 116.67317"
   sodipodi:docname="Screen Shot 2022-09-27 at 11.53.00.png"
   inkscape:export-filename="Screen Shot 2022-09-27 at 11.53.00.svg"
   inkscape:export-xdpi="10"
   inkscape:export-ydpi="10"
   inkscape:version="0.0"
   xmlns:inkscape="http://www.inkscape.org/namespaces/inkscape"
   xmlns:sodipodi="http://sodipodi.sourceforge.net/DTD/sodipodi-0.dtd"
   xmlns="http://www.w3.org/2000/svg"
   xmlns:svg="http://www.w3.org/2000/svg">
  <defs
     id="defs260" />
  <sodipodi:namedview
     id="namedview258"
     pagecolor="#ffffff"
     bordercolor="#000000"
     borderopacity="0.25"
     inkscape:showpageshadow="2"
     inkscape:pageopacity="0.0"
     inkscape:pagecheckerboard="0"
     inkscape:deskcolor="#d1d1d1"
     showgrid="false"
     inkscape:zoom="2.2712265"
     inkscape:cx="90.920038"
     inkscape:cy="69.125646"
     inkscape:window-width="1536"
     inkscape:window-height="862"
     inkscape:window-x="0"
     inkscape:window-y="23"
     inkscape:window-maximized="0"
     inkscape:current-layer="g262" />
  <g
     inkscape:groupmode="layer"
     inkscape:label="Image"
     id="g262"
     transform="translate(-12.97616,-12.330077)">
    <path
       style="fill:#000000;stroke-width:0.666667"
       d="m 50.189528,128.33658 c 0,-0.43581 11.888888,-0.66667 34.333332,-0.66667 22.44444,0 34.33333,0.23086 34.33333,0.66667 0,0.43581 -11.88889,0.66667 -34.33333,0.66667 -22.444444,0 -34.333332,-0.23086 -34.333332,-0.66667 z m -17,-10 c -0.226613,-0.36667 -0.01932,-0.66316 0.460655,-0.65887 0.479973,0.004 16.009727,-0.0346 34.510563,-0.0863 24.478628,-0.0685 33.706224,0.11089 33.888884,0.65886 0.3326,0.9978 -68.24365,1.08379 -68.860102,0.0864 z m 84.666662,0 c -0.22661,-0.36667 -0.0943,-0.67701 0.29399,-0.68965 0.3883,-0.0127 4.30601,-0.023 8.70601,-0.023 4.4,0 8.3,0.0103 8.66667,0.023 0.36666,0.0127 0.66666,0.32298 0.66666,0.68965 0,0.41138 -3.43132,0.66667 -8.96065,0.66667 -5.25465,0 -9.13107,-0.27573 -9.37268,-0.66667 z M 13.303629,108.56179 c -1.30143,-1.30143 0.82203,-1.54851 14.71923,-1.7127 l 15.166669,-0.17918 v -6 -5.99999 l -13.333329,-0.333333 -13.33334,-0.333333 -0.22556,-1.59562 c -0.17899,-1.26614 1.1262,-2.95248 6.32082,-8.166667 l 6.54639,-6.571046 h -3.43987 c -3.39308,0 -5.53511,-1.109794 -5.53511,-2.867767 0,-0.424886 2.61875,-3.40346 5.81943,-6.619046 l 5.819436,-5.84652 h -2.352766 c -2.5189,0 -3.95277,-0.958485 -3.95277,-2.642265 0,-0.573246 4.2,-5.234226 9.333336,-10.357735 l 9.333333,-9.31547 9.303769,9.285963 c 5.117073,5.10728 9.392073,9.843691 9.5,10.525359 0.15846,1.00084 0.833,0.591203 3.504502,-2.128228 l 3.308275,-3.367624 h -2.852102 c -1.568655,0 -3.432377,-0.310555 -4.141605,-0.690123 -2.829385,-1.51424 -1.570441,-3.376908 10.286407,-15.219232 L 84.67468,26.8655 96.098773,38.207972 c 8.845937,8.782743 11.424087,11.726787 11.424087,13.045421 0,2.043638 -1.67107,3.083195 -4.95618,3.083195 -1.30743,0 -2.37715,0.245993 -2.37715,0.546653 0,0.300658 1.34999,1.759736 2.99999,3.242394 1.96827,1.768644 3,2.344154 3,1.673424 0,-1.166174 17.87848,-19.462471 19.01802,-19.462471 0.41039,0 4.69922,4.018469 9.53074,8.929931 6.54089,6.64912 8.78458,9.355296 8.78458,10.59534 0,1.846263 -1.06846,2.474729 -4.2073,2.474729 -2.07033,0 -2.02083,0.07777 3.7212,5.84652 3.20068,3.215586 5.81943,6.305586 5.81943,6.866666 0,1.848333 -1.54941,2.620147 -5.25993,2.620147 h -3.65993 l 6.84196,6.95284 c 6.11213,6.211173 6.76315,7.100093 6.10314,8.333333 -0.70839,1.323626 -1.27335,1.380493 -13.71536,1.380493 h -12.97655 v 6.320813 6.32081 l 15.00079,0.17919 c 9.29422,0.11101 15.06389,0.43279 15.16667,0.84585 0.18786,0.75501 -142.300541,1.31134 -143.053351,0.55854 z m 70.552565,-7.89188 v -5.99999 l -19.5,-0.176733 -19.5,-0.17674 v 6.353463 6.35348 l 19.5,-0.17674 19.5,-0.17674 z m 40.333326,0 V 94.336587 H 104.85619 85.52286 v 6.333323 6.33334 h 19.33333 19.33333 z M 49.522861,91.9322 c 0,-0.58908 2.1,-3.236793 4.666667,-5.883806 2.566666,-2.647013 4.666666,-5.079733 4.666666,-5.406047 0,-0.326313 -1.37877,-1.993113 -3.063933,-3.704 -3.129429,-3.177206 -3.153063,-5.013146 -0.03294,-2.558853 1.375255,1.081773 2.510157,1.31728 5.578358,1.15758 2.890314,-0.15044 3.851848,-0.450113 3.851848,-1.200486 0,-0.77048 -1.031178,-1.045207 -4.492757,-1.19696 -3.74834,-0.164327 -4.615396,-0.426114 -5.232918,-1.579967 -0.60196,-1.124773 -0.465573,-1.754407 0.730446,-3.372107 l 1.470606,-1.9891 -2.737688,-2.789501 c -2.620177,-2.669765 -3.451704,-4.405698 -2.110366,-4.405698 0.345027,0 0.812732,0.3 1.039344,0.666666 0.487532,0.788843 7,0.910734 7,0.131017 0,-0.294607 -3.794109,-4.371268 -8.431353,-9.059245 l -8.431354,-8.523595 -8.568646,8.549626 c -4.712756,4.702295 -8.568642,8.770247 -8.568642,9.039895 0,0.269648 3.900912,0.573976 8.668698,0.676286 9.712565,0.208415 12.268431,1.401785 3.664631,1.711067 l -5.333333,0.191718 -5.833336,5.794384 c -3.20833,3.186907 -5.83333,6.16838 -5.83333,6.625493 0,0.622747 2.75813,0.87694 11.001357,1.0139 6.766182,0.11242 11.00214,0.439434 11.00339,0.849454 0.0012,0.38498 -2.699479,0.74758 -6.391568,0.85816 l -6.393599,0.191493 -7.00871,6.932707 c -3.8548,3.812986 -6.8115,7.251813 -6.57045,7.641839 0.28951,0.468434 5.7426,0.709134 16.06559,0.709134 13.907267,0 15.627322,-0.117887 15.627322,-1.071054 z m 67.783279,0.0076 C 117.59618,91.183947 114.601,87.758774 106.95188,80.099107 101.03259,74.171614 96.189527,69.100181 96.189527,68.829228 c 0,-1.059787 1.84538,-0.409834 3.333333,1.174026 1.42697,1.518947 2.0577,1.666667 7.1162,1.666667 4.859,0 5.55046,-0.14654 5.55046,-1.176287 0,-0.646953 -3.9,-5.067626 -8.66666,-9.823713 -4.766667,-4.756086 -8.666667,-9.073253 -8.666667,-9.593706 0,-0.760007 0.239987,-0.729092 1.21916,0.157048 1.534987,1.389143 10.114167,1.611732 10.114167,0.262414 0,-0.462501 -4.88259,-5.716785 -10.85022,-11.676187 L 84.48908,28.984215 73.545901,40.000332 c -7.01956,7.066346 -10.71286,11.246437 -10.300805,11.658491 0.353305,0.353306 5.361018,0.725337 11.128245,0.826736 11.958159,0.210248 14.839699,1.40448 4.116866,1.706205 l -6.699326,0.188509 -7.56214,7.583657 c -5.304393,5.319484 -7.440567,7.900478 -7.154935,8.644824 0.354046,0.922627 2.189026,1.061167 14.055455,1.061167 8.379699,0 13.807293,0.257347 14.060266,0.666667 0.266167,0.430666 -2.496167,0.666666 -7.803253,0.666666 h -8.215273 l -8.919302,8.9377 c -6.298511,6.3115 -8.799524,9.24984 -8.511661,10 0.365231,0.951773 3.77602,1.0623 32.782822,1.0623 29.02193,0 32.41744,-0.110154 32.78328,-1.063487 z m 33.92854,0.32376 c 0.26456,-0.428073 -3.28632,-4.490933 -8.42828,-9.643493 -4.88699,-4.897073 -8.67383,-9.115379 -8.4152,-9.374013 0.25864,-0.25864 1.1634,0.180934 2.01058,0.976827 1.28567,1.20782 2.33237,1.447073 6.33071,1.447073 2.6347,0 4.79037,-0.220307 4.79037,-0.489567 0,-0.269266 -3.36007,-3.859199 -7.46682,-7.977626 -4.10675,-4.118435 -7.25175,-7.70313 -6.98889,-7.96599 0.26286,-0.26286 0.83293,-0.122928 1.26682,0.310962 0.84792,0.84789 7.85555,1.113865 7.85555,0.298124 0,-0.269901 -3.82074,-4.31998 -8.49055,-9.000174 l -8.49056,-8.509444 -8.50944,8.490556 c -4.68019,4.669805 -8.50945,8.719884 -8.50945,9.000174 0,0.28029 3.57547,0.509619 7.94548,0.509619 4.37001,0 8.41828,0.181435 8.99617,0.40319 2.27079,0.871382 0.0646,1.59681 -4.85627,1.59681 -4.87078,0 -5.27964,0.11522 -7.08108,1.995513 l -1.91182,1.995507 1.45376,1.54746 c 3.02367,3.21854 1.44658,5.128186 -4.23512,5.128186 -4.43928,0 -5.3702,0.390554 -4.2237,1.771993 0.56749,0.683787 3.39472,0.894674 11.99421,0.894674 9.55707,0 11.25171,0.150613 11.25171,1 0,0.830126 -1.28482,1 -7.56334,1 -6.69282,0 -7.70093,0.152026 -8.75868,1.320826 -1.39556,1.54208 -1.44547,1.457667 4.48868,7.59186 2.10834,2.1794 3.83334,4.51562 3.83334,5.1916 0,1.159333 0.88644,1.229047 15.62732,1.229047 10.72802,0 15.77065,-0.231907 16.0845,-0.739727 z M 61.856194,78.336587 c 0.226613,-0.366666 -0.205683,-0.666666 -0.960655,-0.666666 -0.754973,0 -1.372678,0.3 -1.372678,0.666666 0,0.366667 0.432295,0.666667 0.960655,0.666667 0.528361,0 1.146065,-0.3 1.372678,-0.666667 z m 47.999996,0 c 0.22661,-0.366666 -0.20568,-0.666666 -0.96065,-0.666666 -0.75498,0 -1.37268,0.3 -1.37268,0.666666 0,0.366667 0.43229,0.666667 0.96065,0.666667 0.52836,0 1.14607,-0.3 1.37268,-0.666667 z M 60.522861,63.669921 c 1.186589,-1.311167 1.164422,-1.333333 -1.333333,-1.333333 -2.497756,0 -2.519923,0.02217 -1.333334,1.333333 0.663658,0.733333 1.263658,1.333333 1.333334,1.333333 0.06968,0 0.669676,-0.6 1.333333,-1.333333 z M 111.135,63.931928 c 1.90086,-0.72943 1.10534,-1.595771 -1.44548,-1.574138 -2.3428,0.01987 -2.41862,0.08275 -1.20591,1 1.50033,1.134791 1.30217,1.091884 2.65139,0.574138 z M 51.198357,27.017541 c -0.23467,-0.379703 -0.01602,-0.847952 0.485895,-1.040554 1.649306,-0.632898 17.176609,-0.0065 17.176302,0.692935 -4e-4,0.923374 -17.098384,1.259889 -17.662197,0.347619 z m 57.333323,0 c -0.23466,-0.379703 -0.016,-0.847952 0.4859,-1.040554 1.64931,-0.632898 17.17661,-0.0065 17.1763,0.692935 -4e-4,0.923374 -17.09838,1.259889 -17.6622,0.347619 z M 34.629371,20.554209 c -0.241914,-0.241913 -0.439843,-0.689842 -0.439843,-0.995398 0,-0.305556 9.775,-0.555556 21.722222,-0.555556 17.081397,0 21.662911,0.178037 21.444597,0.833334 -0.21272,0.638516 -5.18814,0.871221 -21.282378,0.995398 -11.552615,0.08914 -21.202684,-0.03587 -21.444598,-0.277778 z m 57.229583,-0.213153 c -0.231334,-0.374303 -0.0238,-0.832807 0.46112,-1.018899 1.711133,-0.656624 42.532016,-0.0055 42.703226,0.681098 0.23182,0.929724 -42.591393,1.264856 -43.164346,0.337801 z m -51.002759,-7.3378 c 0,-0.897572 19.111937,-0.897572 19.666666,0 0.267714,0.433171 -3.104188,0.666666 -9.627322,0.666666 -6.248452,0 -10.039344,-0.251736 -10.039344,-0.666666 z m 57.666665,0 c 0.243907,-0.394647 4.34025,-0.666667 10.03934,-0.666667 5.97377,0 9.62732,0.252999 9.62732,0.666667 0,0.41493 -3.79089,0.666666 -10.03934,0.666666 -6.52314,0 -9.895033,-0.233495 -9.62732,-0.666666 z"
       id="path374" />
  </g>
</svg>
